{
  "accessors": [
    {
      "bufferView": 2,
      "componentType": 5126,
      "count": 65532,
      "max": [
        1.2827560901641846,
        5.2954435348510742,
        1.5881680250167847
      ],
      "min": [
        -1.2911708354949951,
        -5.0626397132873535,
        -1.0646237134933472
      ],
      "type": "VEC3"
    },
    {
      "bufferView": 2,
      "byteOffset": 786384,
      "componentType": 5126,
      "count": 65532,
      "max": [
        0.99999940395355225,
        0.99982106685638428,
        0.9999997615814209
      ],
      "min": [
        -0.99999737739562988,
        -0.99995660781860352,
        -0.99998712539672852
      ],
      "type": "VEC3"
    },
    {
      "bufferView": 1,
      "componentType": 5126,
      "count": 65532,
      "max": [
        1.7943085432052612,
        2.1418991088867188
      ],
      "min": [
        -0.75352990627288818,
        -1.1640524864196777
      ],
      "type": "VEC2"
    },
    {
      "bufferView": 0,
      "componentType": 5125,
      "count": 299130,
      "max": [
        65531
      ],
      "min": [
        0
      ],
      "type": "SCALAR"
    },
    {
      "bufferView": 2,
      "byteOffset": 1572768,
      "componentType": 5126,
      "count": 65532,
      "max": [
        1.2838853597640991,
        5.2981948852539062,
        1.5857053995132446
      ],
      "min": [
        -1.2911708354949951,
        -5.0509200096130371,
        -1.0649356842041016
      ],
      "type": "VEC3"
    },
    {
      "bufferView": 2,
      "byteOffset": 2359152,
      "componentType": 5126,
      "count": 65532,
      "max": [
        0.99999141693115234,
        0.99993467330932617,
        0.99996030330657959
      ],
      "min": [
        -0.99999725818634033,
        -0.99980998039245605,
        -0.99999916553497314
      ],
      "type": "VEC3"
    },
    {
      "bufferView": 1,
      "byteOffset": 524256,
      "componentType": 5126,
      "count": 65532,
      "max": [
        2.0120189189910889,
        2.1637892723083496
      ],
      "min": [
        -0.76507985591888428,
        -1.1640524864196777
      ],
      "type": "VEC2"
    },
    {
      "bufferView": 0,
      "byteOffset": 1196520,
      "componentType": 5125,
      "count": 290130,
      "max": [
        65531
      ],
      "min": [
        0
      ],
      "type": "SCALAR"
    },
    {
      "bufferView": 2,
      "byteOffset": 3145536,
      "componentType": 5126,
      "count": 53511,
      "max": [
        1.2835263013839722,
        5.2981948852539062,
        1.5884276628494263
      ],
      "min": [
        -1.289311408996582,
        -5.0595645904541016,
        -1.0632716417312622
      ],
      "type": "VEC3"
    },
    {
      "bufferView": 2,
      "byteOffset": 3787668,
      "componentType": 5126,
      "count": 53511,
      "max": [
        0.9999995231628418,
        0.99989068508148193,
        0.99997425079345703
      ],
      "min": [
        -0.99999737739562988,
        -0.99963581562042236,
        -0.99999403953552246
      ],
      "type": "VEC3"
    },
    {
      "bufferView": 1,
      "byteOffset": 1048512,
      "componentType": 5126,
      "count": 53511,
      "max": [
        2.0121710300445557,
        2.6331272125244141
      ],
      "min": [
        -0.79948914051055908,
        -1.1639238595962524
      ],
      "type": "VEC2"
    },
    {
      "bufferView": 0,
      "byteOffset": 2357040,
      "componentType": 5125,
      "count": 151476,
      "max": [
        53510
      ],
      "min": [
        0
      ],
      "type": "SCALAR"
    }
  ],
  "asset": {
    "extras": {
      "author": "ComedyStudios (https://sketchfab.com/ComedyStudios)",
      "license": "CC-BY-4.0 (http://creativecommons.org/licenses/by/4.0/)",
      "source": "https://sketchfab.com/3d-models/wood-log-ba0c8fa1105d4051be5f8f68c5b5341a",
      "title": "wood log"
    },
    "generator": "Sketchfab-9.99.1",
    "version": "2.0"
  },
  "bufferViews": [
    {
      "buffer": 0,
      "byteLength": 2962944,
      "byteOffset": 0,
      "name": "floatBufferViews",
      "target": 34963
    },
    {
      "buffer": 0,
      "byteLength": 1476600,
      "byteOffset": 2962944,
      "byteStride": 8,
      "name": "floatBufferViews",
      "target": 34962
    },
    {
      "buffer": 0,
      "byteLength": 4429800,
      "byteOffset": 4439544,
      "byteStride": 12,
      "name": "floatBufferViews",
      "target": 34962
    }
  ],
  "buffers": [
    {
      "byteLength": 8869344,
      "uri": "scene.bin"
    }
  ],
  "images": [
    {
      "uri": "textures/Material_baseColor.jpeg"
    },
    {
      "uri": "textures/Material_metallicRoughness.png"
    }
  ],
  "materials": [
    {
      "doubleSided": true,
      "emissiveFactor": [
        0,
        0,
        0
      ],
      "name": "Material",
      "occlusionTexture": {
        "index": 1,
        "strength": 1,
        "texCoord": 0
      },
      "pbrMetallicRoughness": {
        "baseColorFactor": [
          1,
          1,
          1,
          1
        ],
        "baseColorTexture": {
          "index": 0,
          "texCoord": 0
        },
        "metallicFactor": 0,
        "metallicRoughnessTexture": {
          "index": 1,
          "texCoord": 0
        },
        "roughnessFactor": 1
      }
    }
  ],
  "meshes": [
    {
      "primitives": [
        {
          "attributes": {
            "NORMAL": 1,
            "POSITION": 0,
            "TEXCOORD_0": 2
          },
          "indices": 3,
          "material": 0,
          "mode": 4
        }
      ]
    },
    {
      "primitives": [
        {
          "attributes": {
            "NORMAL": 5,
            "POSITION": 4,
            "TEXCOORD_0": 6
          },
          "indices": 7,
          "material": 0,
          "mode": 4
        }
      ]
    },
    {
      "primitives": [
        {
          "attributes": {
            "NORMAL": 9,
            "POSITION": 8,
            "TEXCOORD_0": 10
          },
          "indices": 11,
          "material": 0,
          "mode": 4
        }
      ]
    }
  ],
  "nodes": [
    {
      "children": [
        1
      ],
      "name": "RootNode (gltf orientation matrix)",
      "rotation": [
        -0.70710678118654746,
        -0,
        -0,
        0.70710678118654757
      ]
    },
    {
      "children": [
        2
      ],
      "matrix": [
        2.2204460492503131e-16,
        1,
        0,
        0,
        -1,
        2.2204460492503131e-16,
        0,
        0,
        0,
        0,
        1,
        0,
        -0.11413341760635376,
        -0.12141504883766174,
        -1.0242846570918118e-09,
        1
      ],
      "name": "RootNode (model correction matrix)"
    },
    {
      "children": [
        3
      ],
      "name": "root"
    },
    {
      "children": [
        4
      ],
      "matrix": [
        1,
        0,
        0,
        0,
        0,
        2.2204460492503131e-16,
        1,
        0,
        0,
        -1,
        2.2204460492503131e-16,
        0,
        0,
        0,
        0,
        1
      ],
      "name": "GLTF_SceneRootNode"
    },
    {
      "children": [
        5,
        6,
        7
      ],
      "matrix": [
        -0.99999999999997335,
        1.6292068076121266e-07,
        -1.6292068076121266e-07,
        0,
        -1.6292068076121266e-07,
        1.3322676295501878e-14,
        0.99999999999998668,
        0,
        1.6292068076121266e-07,
        0.99999999999998668,
        1.3322676295501878e-14,
        0,
        0,
        1,
        0,
        1
      ],
      "name": "Cylinder_1"
    },
    {
      "mesh": 0,
      "name": ""
    },
    {
      "mesh": 1,
      "name": ""
    },
    {
      "mesh": 2,
      "name": ""
    }
  ],
  "samplers": [
    {
      "magFilter": 9729,
      "minFilter": 9987,
      "wrapS": 10497,
      "wrapT": 10497
    }
  ],
  "scene": 0,
  "scenes": [
    {
      "name": "OSG_Scene",
      "nodes": [
        0
      ]
    }
  ],
  "textures": [
    {
      "sampler": 0,
      "source": 0
    },
    {
      "sampler": 0,
      "source": 1
    }
  ]
}

