{
  "accessors": [
    {
      "bufferView": 2,
      "componentType": 5126,
      "count": 1777,
      "max": [
        1.9194300174713135,
        3.386152982711792,
        0.59555894136428833
      ],
      "min": [
        -1.9194300174713135,
        -0.099488459527492523,
        -0.70806026458740234
      ],
      "type": "VEC3"
    },
    {
      "bufferView": 2,
      "byteOffset": 21324,
      "componentType": 5126,
      "count": 1777,
      "max": [
        1,
        1,
        1
      ],
      "min": [
        -1,
        -1,
        -1
      ],
      "type": "VEC3"
    },
    {
      "bufferView": 3,
      "componentType": 5126,
      "count": 1777,
      "max": [
        1,
        0.99998974800109863,
        1,
        1
      ],
      "min": [
        -1,
        -0.99999970197677612,
        -1,
        -1
      ],
      "type": "VEC4"
    },
    {
      "bufferView": 1,
      "componentType": 5126,
      "count": 1777,
      "max": [
        1.9983654022216797,
        0.99598419666290283
      ],
      "min": [
        0.0021142612677067518,
        0.001044154167175293
      ],
      "type": "VEC2"
    },
    {
      "bufferView": 1,
      "byteOffset": 14216,
      "componentType": 5126,
      "count": 1777,
      "max": [
        1.9983654022216797,
        0.99598419666290283
      ],
      "min": [
        0.0021142612677067518,
        0.001044154167175293
      ],
      "type": "VEC2"
    },
    {
      "bufferView": 1,
      "byteOffset": 28432,
      "componentType": 5126,
      "count": 1777,
      "max": [
        1.9983654022216797,
        0.99598419666290283
      ],
      "min": [
        0.0021142612677067518,
        0.001044154167175293
      ],
      "type": "VEC2"
    },
    {
      "bufferView": 1,
      "byteOffset": 42648,
      "componentType": 5126,
      "count": 1777,
      "max": [
        1.9983654022216797,
        0.99598419666290283
      ],
      "min": [
        0.0021142612677067518,
        0.001044154167175293
      ],
      "type": "VEC2"
    },
    {
      "bufferView": 0,
      "componentType": 5125,
      "count": 7416,
      "max": [
        1776
      ],
      "min": [
        0
      ],
      "type": "SCALAR"
    }
  ],
  "asset": {
    "extras": {
      "author": "avelium (https://sketchfab.com/avelium)",
      "license": "CC-BY-4.0 (http://creativecommons.org/licenses/by/4.0/)",
      "source": "https://sketchfab.com/3d-models/medieval-notice-board-566a4332b57d4045a1cc4ffec77b4b8f",
      "title": "Medieval Notice Board"
    },
    "generator": "Sketchfab-7.27.0",
    "version": "2.0"
  },
  "bufferViews": [
    {
      "buffer": 0,
      "byteLength": 29664,
      "byteOffset": 0,
      "name": "floatBufferViews",
      "target": 34963
    },
    {
      "buffer": 0,
      "byteLength": 56864,
      "byteOffset": 29664,
      "byteStride": 8,
      "name": "floatBufferViews",
      "target": 34962
    },
    {
      "buffer": 0,
      "byteLength": 42648,
      "byteOffset": 86528,
      "byteStride": 12,
      "name": "floatBufferViews",
      "target": 34962
    },
    {
      "buffer": 0,
      "byteLength": 28432,
      "byteOffset": 129176,
      "byteStride": 16,
      "name": "floatBufferViews",
      "target": 34962
    }
  ],
  "buffers": [
    {
      "byteLength": 157608,
      "uri": "scene.bin"
    }
  ],
  "images": [
    {
      "uri": "textures/default_baseColor.jpeg"
    },
    {
      "uri": "textures/default_normal.png"
    }
  ],
  "materials": [
    {
      "doubleSided": false,
      "name": "default",
      "normalTexture": {
        "index": 1,
        "scale": 1,
        "texCoord": 0
      },
      "pbrMetallicRoughness": {
        "baseColorFactor": [
          1,
          1,
          1,
          1
        ],
        "baseColorTexture": {
          "index": 0,
          "texCoord": 0
        },
        "metallicFactor": 0,
        "roughnessFactor": 0.59999999999999998
      }
    }
  ],
  "meshes": [
    {
      "primitives": [
        {
          "attributes": {
            "NORMAL": 1,
            "POSITION": 0,
            "TANGENT": 2,
            "TEXCOORD_0": 3,
            "TEXCOORD_1": 4,
            "TEXCOORD_2": 5,
            "TEXCOORD_3": 6
          },
          "indices": 7,
          "material": 0,
          "mode": 4
        }
      ]
    }
  ],
  "nodes": [
    {
      "children": [
        1
      ],
      "name": "RootNode (gltf orientation matrix)",
      "rotation": [
        -0.70710678118654746,
        -0,
        -0,
        0.70710678118654757
      ]
    },
    {
      "children": [
        2
      ],
      "name": "RootNode (model correction matrix)"
    },
    {
      "children": [
        3
      ],
      "name": "root"
    },
    {
      "children": [
        4
      ],
      "matrix": [
        1,
        0,
        0,
        0,
        0,
        2.2204460492503131e-16,
        1,
        0,
        0,
        -1,
        2.2204460492503131e-16,
        0,
        0,
        0,
        0,
        1
      ],
      "name": "GLTF_SceneRootNode"
    },
    {
      "children": [
        5
      ],
      "name": "notice_board_0"
    },
    {
      "mesh": 0,
      "name": ""
    }
  ],
  "samplers": [
    {
      "magFilter": 9729,
      "minFilter": 9987,
      "wrapS": 10497,
      "wrapT": 10497
    }
  ],
  "scene": 0,
  "scenes": [
    {
      "name": "OSG_Scene",
      "nodes": [
        0
      ]
    }
  ],
  "textures": [
    {
      "sampler": 0,
      "source": 0
    },
    {
      "sampler": 0,
      "source": 1
    }
  ]
}

