{
  "accessors": [
    {
      "bufferView": 2,
      "componentType": 5126,
      "count": 927,
      "max": [
        -2.5735359191894531,
        38.612754821777344,
        22.921451568603516
      ],
      "min": [
        -21.479276657104492,
        22.395776748657227,
        10.865429878234863
      ],
      "type": "VEC3"
    },
    {
      "bufferView": 2,
      "byteOffset": 11124,
      "componentType": 5126,
      "count": 927,
      "max": [
        0.99413460493087769,
        0.97646015882492065,
        0.99999964237213135
      ],
      "min": [
        -0.99994033575057983,
        -0.97405326366424561,
        -0.98273241519927979
      ],
      "type": "VEC3"
    },
    {
      "bufferView": 1,
      "componentType": 5126,
      "count": 927,
      "max": [
        1,
        1
      ],
      "min": [
        0,
        0
      ],
      "type": "VEC2"
    },
    {
      "bufferView": 0,
      "componentType": 5125,
      "count": 2463,
      "max": [
        926
      ],
      "min": [
        0
      ],
      "type": "SCALAR"
    },
    {
      "bufferView": 2,
      "byteOffset": 22248,
      "componentType": 5126,
      "count": 419,
      "max": [
        -2.0250072479248047,
        38.595874786376953,
        23.325784683227539
      ],
      "min": [
        -17.456466674804688,
        22.800928115844727,
        10.865429878234863
      ],
      "type": "VEC3"
    },
    {
      "bufferView": 2,
      "byteOffset": 27276,
      "componentType": 5126,
      "count": 419,
      "max": [
        0.99069279432296753,
        0.99627608060836792,
        0.99970054626464844
      ],
      "min": [
        -0.99306589365005493,
        -0.99627560377120972,
        -0.98752176761627197
      ],
      "type": "VEC3"
    },
    {
      "bufferView": 1,
      "byteOffset": 7416,
      "componentType": 5126,
      "count": 419,
      "max": [
        1,
        1
      ],
      "min": [
        0,
        0
      ],
      "type": "VEC2"
    },
    {
      "bufferView": 0,
      "byteOffset": 9852,
      "componentType": 5125,
      "count": 1266,
      "max": [
        418
      ],
      "min": [
        0
      ],
      "type": "SCALAR"
    },
    {
      "bufferView": 2,
      "byteOffset": 32304,
      "componentType": 5126,
      "count": 168,
      "max": [
        -9.3510074615478516,
        39.579833984375,
        17.199050903320312
      ],
      "min": [
        -14.043243408203125,
        36.813507080078125,
        13.239802360534668
      ],
      "type": "VEC3"
    },
    {
      "bufferView": 2,
      "byteOffset": 34320,
      "componentType": 5126,
      "count": 168,
      "max": [
        0.98405033349990845,
        0.98726201057434082,
        1
      ],
      "min": [
        -0.98404997587203979,
        -0.87000101804733276,
        -0.81432914733886719
      ],
      "type": "VEC3"
    },
    {
      "bufferView": 1,
      "byteOffset": 10768,
      "componentType": 5126,
      "count": 168,
      "max": [
        1,
        1
      ],
      "min": [
        0,
        0
      ],
      "type": "VEC2"
    },
    {
      "bufferView": 0,
      "byteOffset": 14916,
      "componentType": 5125,
      "count": 504,
      "max": [
        167
      ],
      "min": [
        0
      ],
      "type": "SCALAR"
    },
    {
      "bufferView": 2,
      "byteOffset": 36336,
      "componentType": 5126,
      "count": 86,
      "max": [
        -9.2268590927124023,
        33.692893981933594,
        19.423187255859375
      ],
      "min": [
        -15.541787147521973,
        25.260868072509766,
        18.237510681152344
      ],
      "type": "VEC3"
    },
    {
      "bufferView": 2,
      "byteOffset": 37368,
      "componentType": 5126,
      "count": 86,
      "max": [
        0.98625928163528442,
        0.98379409313201904,
        0.99750000238418579
      ],
      "min": [
        -0.9862593412399292,
        -0.98379361629486084,
        -0.99750000238418579
      ],
      "type": "VEC3"
    },
    {
      "bufferView": 1,
      "byteOffset": 12112,
      "componentType": 5126,
      "count": 86,
      "max": [
        0.95839661359786987,
        0.97543805837631226
      ],
      "min": [
        0.0077075958251953125,
        0.052106380462646484
      ],
      "type": "VEC2"
    },
    {
      "bufferView": 0,
      "byteOffset": 16932,
      "componentType": 5125,
      "count": 324,
      "max": [
        85
      ],
      "min": [
        0
      ],
      "type": "SCALAR"
    },
    {
      "bufferView": 2,
      "byteOffset": 38400,
      "componentType": 5126,
      "count": 94,
      "max": [
        -5.6478366851806641,
        37.927600860595703,
        18.760112762451172
      ],
      "min": [
        -17.752162933349609,
        31.522405624389648,
        13.390708923339844
      ],
      "type": "VEC3"
    },
    {
      "bufferView": 2,
      "byteOffset": 39528,
      "componentType": 5126,
      "count": 94,
      "max": [
        0.88802242279052734,
        0.92021447420120239,
        0.99983501434326172
      ],
      "min": [
        -0.88802313804626465,
        -0.83697164058685303,
        -0.16251443326473236
      ],
      "type": "VEC3"
    },
    {
      "bufferView": 1,
      "byteOffset": 12800,
      "componentType": 5126,
      "count": 94,
      "max": [
        1,
        1
      ],
      "min": [
        0,
        0
      ],
      "type": "VEC2"
    },
    {
      "bufferView": 0,
      "byteOffset": 18228,
      "componentType": 5125,
      "count": 144,
      "max": [
        93
      ],
      "min": [
        0
      ],
      "type": "SCALAR"
    },
    {
      "bufferView": 2,
      "byteOffset": 40656,
      "componentType": 5126,
      "count": 16,
      "max": [
        -5.8620967864990234,
        38.595874786376953,
        13.515586853027344
      ],
      "min": [
        -17.53790283203125,
        36.982269287109375,
        13.390708923339844
      ],
      "type": "VEC3"
    },
    {
      "bufferView": 2,
      "byteOffset": 40848,
      "componentType": 5126,
      "count": 16,
      "max": [
        0.077362470328807831,
        0.027144541963934898,
        -0.99663352966308594
      ],
      "min": [
        -0.077359974384307861,
        -0.00035396689781919122,
        -0.99999868869781494
      ],
      "type": "VEC3"
    },
    {
      "bufferView": 1,
      "byteOffset": 13552,
      "componentType": 5126,
      "count": 16,
      "max": [
        1,
        1
      ],
      "min": [
        1,
        0
      ],
      "type": "VEC2"
    },
    {
      "bufferView": 0,
      "byteOffset": 18804,
      "componentType": 5125,
      "count": 24,
      "max": [
        15
      ],
      "min": [
        0
      ],
      "type": "SCALAR"
    }
  ],
  "asset": {
    "extras": {
      "author": "Ishak Khan (https://sketchfab.com/mika-anim)",
      "license": "CC-BY-4.0 (http://creativecommons.org/licenses/by/4.0/)",
      "source": "https://sketchfab.com/3d-models/graduation-gown-2020-ce854349069c4535bf41c813eea3e991",
      "title": "Graduation Gown 2020"
    },
    "generator": "Sketchfab-8.23.0",
    "version": "2.0"
  },
  "bufferViews": [
    {
      "buffer": 0,
      "byteLength": 18900,
      "byteOffset": 0,
      "name": "floatBufferViews",
      "target": 34963
    },
    {
      "buffer": 0,
      "byteLength": 13680,
      "byteOffset": 18900,
      "byteStride": 8,
      "name": "floatBufferViews",
      "target": 34962
    },
    {
      "buffer": 0,
      "byteLength": 41040,
      "byteOffset": 32580,
      "byteStride": 12,
      "name": "floatBufferViews",
      "target": 34962
    }
  ],
  "buffers": [
    {
      "byteLength": 73620,
      "uri": "scene.bin"
    }
  ],
  "images": [
    {
      "uri": "textures/lambert9_baseColor.jpeg"
    }
  ],
  "materials": [
    {
      "doubleSided": true,
      "emissiveFactor": [
        0,
        0,
        0
      ],
      "name": "lambert4",
      "pbrMetallicRoughness": {
        "baseColorFactor": [
          0.034360000000000002,
          0.035010800000000002,
          0.040000000000000001,
          1
        ],
        "metallicFactor": 0,
        "roughnessFactor": 0.59999999999999998
      }
    },
    {
      "doubleSided": true,
      "emissiveFactor": [
        0,
        0,
        0
      ],
      "name": "lambert5",
      "pbrMetallicRoughness": {
        "baseColorFactor": [
          0.54700000000000004,
          0.031725999999999997,
          0.054278,
          1
        ],
        "metallicFactor": 0,
        "roughnessFactor": 0.59999999999999998
      }
    },
    {
      "doubleSided": true,
      "emissiveFactor": [
        0,
        0,
        0
      ],
      "name": "lambert3",
      "pbrMetallicRoughness": {
        "baseColorFactor": [
          0.71501999999999999,
          0.70333900000000005,
          0.76700000000000002,
          1
        ],
        "metallicFactor": 0,
        "roughnessFactor": 0.59999999999999998
      }
    },
    {
      "doubleSided": true,
      "emissiveFactor": [
        0,
        0,
        0
      ],
      "name": "lambert9",
      "pbrMetallicRoughness": {
        "baseColorFactor": [
          1,
          1,
          1,
          1
        ],
        "baseColorTexture": {
          "index": 0,
          "texCoord": 0
        },
        "metallicFactor": 0,
        "roughnessFactor": 0.59999999999999998
      }
    },
    {
      "doubleSided": true,
      "emissiveFactor": [
        0,
        0,
        0
      ],
      "name": "lambert10",
      "pbrMetallicRoughness": {
        "baseColorFactor": [
          0.072272100000000006,
          0.020288500000000001,
          0.29614499999999999,
          1
        ],
        "metallicFactor": 0,
        "roughnessFactor": 0.59999999999999998
      }
    },
    {
      "doubleSided": true,
      "emissiveFactor": [
        0,
        0,
        0
      ],
      "name": "lambert1",
      "pbrMetallicRoughness": {
        "baseColorFactor": [
          0.5,
          0.5,
          0.5,
          1
        ],
        "metallicFactor": 0,
        "roughnessFactor": 0.59999999999999998
      }
    }
  ],
  "meshes": [
    {
      "name": "polySurface15_lambert4_0",
      "primitives": [
        {
          "attributes": {
            "NORMAL": 1,
            "POSITION": 0,
            "TEXCOORD_0": 2
          },
          "indices": 3,
          "material": 0,
          "mode": 4
        }
      ]
    },
    {
      "name": "polySurface15_lambert5_0",
      "primitives": [
        {
          "attributes": {
            "NORMAL": 5,
            "POSITION": 4,
            "TEXCOORD_0": 6
          },
          "indices": 7,
          "material": 1,
          "mode": 4
        }
      ]
    },
    {
      "name": "polySurface15_lambert3_0",
      "primitives": [
        {
          "attributes": {
            "NORMAL": 9,
            "POSITION": 8,
            "TEXCOORD_0": 10
          },
          "indices": 11,
          "material": 2,
          "mode": 4
        }
      ]
    },
    {
      "name": "polySurface15_lambert9_0",
      "primitives": [
        {
          "attributes": {
            "NORMAL": 13,
            "POSITION": 12,
            "TEXCOORD_0": 14
          },
          "indices": 15,
          "material": 3,
          "mode": 4
        }
      ]
    },
    {
      "name": "polySurface15_lambert10_0",
      "primitives": [
        {
          "attributes": {
            "NORMAL": 17,
            "POSITION": 16,
            "TEXCOORD_0": 18
          },
          "indices": 19,
          "material": 4,
          "mode": 4
        }
      ]
    },
    {
      "name": "polySurface15_lambert1_0",
      "primitives": [
        {
          "attributes": {
            "NORMAL": 21,
            "POSITION": 20,
            "TEXCOORD_0": 22
          },
          "indices": 23,
          "material": 5,
          "mode": 4
        }
      ]
    }
  ],
  "nodes": [
    {
      "children": [
        1
      ],
      "name": "RootNode (gltf orientation matrix)",
      "rotation": [
        -0.70710678118654746,
        -0,
        -0,
        0.70710678118654757
      ]
    },
    {
      "children": [
        2
      ],
      "matrix": [
        0.14170657098293304,
        0,
        0,
        0,
        0,
        0.14170657098293304,
        0,
        0,
        0,
        0,
        0.14170657098293304,
        0,
        0,
        0,
        0,
        1
      ],
      "name": "RootNode (model correction matrix)"
    },
    {
      "children": [
        3
      ],
      "matrix": [
        1,
        0,
        0,
        0,
        0,
        0,
        1,
        0,
        0,
        -1,
        0,
        0,
        0,
        0,
        0,
        1
      ],
      "name": "8f547ce7b3e445d79bc23410dc40c45e.fbx"
    },
    {
      "children": [
        4
      ],
      "name": "RootNode"
    },
    {
      "children": [
        5,
        6,
        7,
        8,
        9,
        10
      ],
      "name": "polySurface15"
    },
    {
      "mesh": 0,
      "name": "polySurface15_lambert4_0"
    },
    {
      "mesh": 1,
      "name": "polySurface15_lambert5_0"
    },
    {
      "mesh": 2,
      "name": "polySurface15_lambert3_0"
    },
    {
      "mesh": 3,
      "name": "polySurface15_lambert9_0"
    },
    {
      "mesh": 4,
      "name": "polySurface15_lambert10_0"
    },
    {
      "mesh": 5,
      "name": "polySurface15_lambert1_0"
    }
  ],
  "samplers": [
    {
      "magFilter": 9729,
      "minFilter": 9987,
      "wrapS": 10497,
      "wrapT": 10497
    }
  ],
  "scene": 0,
  "scenes": [
    {
      "name": "OSG_Scene",
      "nodes": [
        0
      ]
    }
  ],
  "textures": [
    {
      "sampler": 0,
      "source": 0
    }
  ]
}

