{
  "accessors": [
    {
      "bufferView": 2,
      "componentType": 5126,
      "count": 706,
      "max": [
        4.497920036315918,
        8.2743082046508789,
        15.009437561035156
      ],
      "min": [
        -4.5710959434509277,
        -7.1009011268615723,
        -0.15791699290275574
      ],
      "type": "VEC3"
    },
    {
      "bufferView": 2,
      "byteOffset": 8472,
      "componentType": 5126,
      "count": 706,
      "max": [
        0.99985212087631226,
        0.99960726499557495,
        0.99913632869720459
      ],
      "min": [
        -0.99985212087631226,
        -0.99999046325683594,
        -0.99762988090515137
      ],
      "type": "VEC3"
    },
    {
      "bufferView": 1,
      "componentType": 5126,
      "count": 706,
      "max": [
        0.96702402830123901,
        0.99090999364852905
      ],
      "min": [
        0.0074930000118911266,
        0.029052000492811203
      ],
      "type": "VEC2"
    },
    {
      "bufferView": 0,
      "componentType": 5125,
      "count": 1983,
      "max": [
        705
      ],
      "min": [
        0
      ],
      "type": "SCALAR"
    }
  ],
  "asset": {
    "extras": {
      "author": "nodoxi (https://sketchfab.com/nodoxi)",
      "license": "CC-BY-4.0 (http://creativecommons.org/licenses/by/4.0/)",
      "source": "https://sketchfab.com/3d-models/awarded-reaper-aff8da38e1b543a5a335fbb5a2d0368e",
      "title": "Awarded Reaper"
    },
    "generator": "Sketchfab-7.49.0",
    "version": "2.0"
  },
  "bufferViews": [
    {
      "buffer": 0,
      "byteLength": 7932,
      "byteOffset": 0,
      "name": "floatBufferViews",
      "target": 34963
    },
    {
      "buffer": 0,
      "byteLength": 5648,
      "byteOffset": 7932,
      "byteStride": 8,
      "name": "floatBufferViews",
      "target": 34962
    },
    {
      "buffer": 0,
      "byteLength": 16944,
      "byteOffset": 13580,
      "byteStride": 12,
      "name": "floatBufferViews",
      "target": 34962
    }
  ],
  "buffers": [
    {
      "byteLength": 30524,
      "uri": "scene.bin"
    }
  ],
  "extensionsUsed": [
    "KHR_materials_unlit"
  ],
  "images": [
    {
      "uri": "textures/initialShadingGroup_baseColor.png"
    }
  ],
  "materials": [
    {
      "doubleSided": true,
      "extensions": {
        "KHR_materials_unlit": {}
      },
      "name": "initialShadingGroup",
      "pbrMetallicRoughness": {
        "baseColorFactor": [
          1,
          1,
          1,
          1
        ],
        "baseColorTexture": {
          "index": 0,
          "texCoord": 0
        },
        "metallicFactor": 0,
        "roughnessFactor": 1
      }
    }
  ],
  "meshes": [
    {
      "primitives": [
        {
          "attributes": {
            "NORMAL": 1,
            "POSITION": 0,
            "TEXCOORD_0": 2
          },
          "indices": 3,
          "material": 0,
          "mode": 4
        }
      ]
    }
  ],
  "nodes": [
    {
      "children": [
        1
      ],
      "name": "RootNode (gltf orientation matrix)",
      "rotation": [
        -0.70710678118654746,
        -0,
        -0,
        0.70710678118654757
      ]
    },
    {
      "children": [
        2
      ],
      "name": "RootNode (model correction matrix)"
    },
    {
      "children": [
        3
      ],
      "name": "a091ae91a96a4f5b891d6e0814ecad51.obj.cleaner.materialmerger.gles"
    },
    {
      "mesh": 0,
      "name": ""
    }
  ],
  "samplers": [
    {
      "magFilter": 9728,
      "minFilter": 9728,
      "wrapS": 10497,
      "wrapT": 10497
    }
  ],
  "scene": 0,
  "scenes": [
    {
      "name": "OSG_Scene",
      "nodes": [
        0
      ]
    }
  ],
  "textures": [
    {
      "sampler": 0,
      "source": 0
    }
  ]
}

